<svg width="58" height="57" viewBox="0 0 58 57" fill="none" xmlns="http://www.w3.org/2000/svg">
<g clip-path="url(#clip0_9_9432)" filter="url(#filter0_dd_9_9432)">
<path d="M6.08325 2.09854H51.9166V46.9014H6.08325V2.09854Z" fill="url(#paint0_radial_9_9432)"/>
<path d="M6.08331 2.09855H51.9167V46.9014H6.08331V2.09855ZM4 48.995H54V0.00498962H4V48.995ZM36.75 17.4655C36.75 17.2981 36.8125 17.2142 37 17.2142H40.2708C40.4374 17.2142 40.5208 17.277 40.5208 17.4655V33.984C40.5208 34.1514 40.4791 34.2352 40.2708 34.2352H37.0417C36.8334 34.2352 36.7708 34.1305 36.7708 33.9631V17.4655H36.75ZM36.5208 12.713C36.5208 11.3732 37.4583 10.5776 38.6459 10.5776C39.9167 10.5776 40.7708 11.436 40.7708 12.713C40.7708 14.0948 39.875 14.8485 38.6042 14.8485C37.3958 14.8486 36.5208 14.0948 36.5208 12.713ZM27.1458 24.3534C26.5626 22.0295 25.1876 16.963 24.6667 14.5135H24.625C24.1875 16.963 23.0834 21.1083 22.2084 24.3534H27.1458ZM21.3542 27.7451L19.7083 34.0259C19.6667 34.1932 19.6042 34.2351 19.3959 34.2351H16.3334C16.125 34.2351 16.0833 34.1723 16.1251 33.9211L22.0417 13.1108C22.1458 12.734 22.2083 12.399 22.25 11.3732C22.25 11.2266 22.3125 11.1638 22.4166 11.1638H26.7916C26.9374 11.1638 26.9999 11.2057 27.0417 11.3732L33.6666 33.963C33.7083 34.1304 33.6666 34.2351 33.5 34.2351H30.0416C29.875 34.2351 29.7707 34.1932 29.7292 34.0468L28.0208 27.7451H21.3542Z" fill="#FF7F18"/>
</g>
<defs>
<filter id="filter0_dd_9_9432" x="0" y="0" width="58" height="57" filterUnits="userSpaceOnUse" color-interpolation-filters="sRGB">
<feFlood flood-opacity="0" result="BackgroundImageFix"/>
<feColorMatrix in="SourceAlpha" type="matrix" values="0 0 0 0 0 0 0 0 0 0 0 0 0 0 0 0 0 0 127 0" result="hardAlpha"/>
<feOffset dy="4"/>
<feGaussianBlur stdDeviation="2"/>
<feComposite in2="hardAlpha" operator="out"/>
<feColorMatrix type="matrix" values="0 0 0 0 0 0 0 0 0 0 0 0 0 0 0 0 0 0 0.25 0"/>
<feBlend mode="normal" in2="BackgroundImageFix" result="effect1_dropShadow_9_9432"/>
<feColorMatrix in="SourceAlpha" type="matrix" values="0 0 0 0 0 0 0 0 0 0 0 0 0 0 0 0 0 0 127 0" result="hardAlpha"/>
<feOffset dy="4"/>
<feGaussianBlur stdDeviation="2"/>
<feComposite in2="hardAlpha" operator="out"/>
<feColorMatrix type="matrix" values="0 0 0 0 0 0 0 0 0 0 0 0 0 0 0 0 0 0 0.25 0"/>
<feBlend mode="normal" in2="effect1_dropShadow_9_9432" result="effect2_dropShadow_9_9432"/>
<feBlend mode="normal" in="SourceGraphic" in2="effect2_dropShadow_9_9432" result="shape"/>
</filter>
<radialGradient id="paint0_radial_9_9432" cx="0" cy="0" r="1" gradientUnits="userSpaceOnUse" gradientTransform="translate(21.1785 12.1389) scale(34.8334 33.891)">
<stop stop-color="#423325" stop-opacity="0.98"/>
<stop offset="1" stop-color="#1C0A00"/>
</radialGradient>
<clipPath id="clip0_9_9432">
<rect width="50" height="49" fill="white" transform="translate(4)"/>
</clipPath>
</defs>
</svg>
