<?xml version="1.0" encoding="UTF-8"?>
<svg id="layer" xmlns="http://www.w3.org/2000/svg" viewBox="0 0 300 105">
  <defs>
    <style>
      .cls-1 {
        fill: #003e6b;
      }

      .cls-1, .cls-2, .cls-3 {
        stroke-width: 0px;
      }

      .cls-2 {
        fill: #00467f;
      }

      .cls-3 {
        fill: #fff;
      }
    </style>
  </defs>
  <path class="cls-2" d="M106.75,50.56v-12.96h3.23c2.98,0,4.31.98,4.31,3.38,0,1.37-.59,2.25-1.66,2.74v.05c1.47.54,2.01,1.61,2.01,3.08,0,2.98-1.96,3.72-4.45,3.72M110.03,42.97c1.08,0,2.05-.39,2.05-1.81s-1.03-1.66-2.05-1.66h-1.17v3.47h1.17ZM110.27,48.65c1.52,0,2.15-.54,2.15-1.96s-.73-2.01-2.15-2.01h-1.42v3.91h1.42v.05Z"/>
  <path class="cls-2" d="M122.36,50.56l-1.86-5.33h-1.66v5.33h-2.15v-12.96h3.42c2.79,0,4.11,1.08,4.11,3.62,0,1.66-.68,2.64-1.81,3.18l2.25,6.21M120.11,43.36c.98,0,2.01-.34,2.01-2.01,0-1.81-1.03-1.96-2.01-1.96h-1.22v3.96h1.22Z"/>
  <rect class="cls-2" x="126.52" y="37.59" width="2.15" height="12.96"/>
  <polyline class="cls-2" points="133.12 50.56 133.12 39.55 130.43 39.55 130.43 37.59 137.91 37.59 137.91 39.55 135.22 39.55 135.22 50.56"/>
  <rect class="cls-2" x="139.67" y="37.59" width="2.15" height="12.96"/>
  <path class="cls-2" d="M149.17,41.02c-.29-1.13-.73-1.81-1.76-1.81-.93,0-1.47.49-1.47,1.32,0,2.69,5.33,2.4,5.33,6.65,0,2.25-1.47,3.52-3.82,3.52s-3.38-1.13-3.82-3.47l2.01-.34c.24,1.32.73,2.01,1.91,2.01.98,0,1.66-.54,1.66-1.57,0-2.84-5.28-2.49-5.28-6.65,0-2.01,1.32-3.28,3.47-3.28s3.28,1.27,3.62,3.23"/>
  <polyline class="cls-2" points="159.1 50.56 159.1 44.83 155.43 44.83 155.43 50.56 153.27 50.56 153.27 37.59 155.43 37.59 155.43 42.87 159.1 42.87 159.1 37.59 161.2 37.59 161.2 50.56"/>
  <path class="cls-2" d="M174.65,46.35c-.39,2.89-1.61,4.4-3.96,4.4-3.08,0-4.11-2.54-4.11-6.7,0-3.77,1.08-6.6,4.16-6.6,2.49,0,3.47,1.57,3.82,4.21l-2.01.2c-.29-1.66-.83-2.45-1.81-2.45-1.32,0-2.01,1.37-2.01,4.7,0,3.62.59,4.79,2.01,4.79,1.03,0,1.66-.93,1.91-2.69"/>
  <path class="cls-2" d="M176.22,44.1c0-4.31,1.22-6.65,4.31-6.65s4.31,2.35,4.31,6.65-1.32,6.65-4.31,6.65-4.31-2.4-4.31-6.65M182.63,44.1c0-3.38-.68-4.79-2.1-4.79s-2.1,1.42-2.1,4.79.78,4.79,2.1,4.79,2.1-1.32,2.1-4.79"/>
  <polyline class="cls-2" points="186.93 50.56 186.93 37.59 189.08 37.59 189.08 48.6 193.44 48.6 193.44 50.56"/>
  <path class="cls-2" d="M200.78,37.59h2.1v8.85c0,2.79-1.22,4.31-4.01,4.31s-3.91-1.47-3.91-4.31v-8.85h2.15v9.15c0,1.52.54,2.15,1.81,2.15s1.86-.64,1.86-2.15"/>
  <polyline class="cls-2" points="213.59 50.56 213.59 41.02 213.54 41.02 211.2 50.56 209.68 50.56 207.33 41.02 207.28 41.02 207.28 50.56 205.38 50.56 205.38 37.59 208.31 37.59 210.41 46.3 210.46 46.3 212.66 37.59 215.5 37.59 215.5 50.56"/>
  <path class="cls-2" d="M218.09,50.56v-12.96h3.23c2.98,0,4.31.98,4.31,3.38,0,1.37-.59,2.25-1.66,2.74v.05c1.47.54,2.01,1.61,2.01,3.08,0,2.98-1.96,3.72-4.45,3.72M221.37,42.97c1.13,0,2.05-.39,2.05-1.81s-1.03-1.66-2.05-1.66h-1.22v3.47h1.22ZM221.62,48.65c1.52,0,2.15-.54,2.15-1.96s-.73-2.01-2.15-2.01h-1.42v3.91h1.42v.05Z"/>
  <rect class="cls-2" x="228.07" y="37.59" width="2.15" height="12.96"/>
  <path class="cls-2" d="M238.59,50.56l-.68-3.33h-3.13l-.68,3.33h-2.15l2.94-12.96h2.89l3.03,12.96M235.17,45.32h2.35l-1.17-5.67h-.05l-1.13,5.67Z"/>
  <rect class="cls-2" x="106.58" y="55.02" width="2.15" height="13.02"/>
  <polyline class="cls-2" points="117.56 67.97 113.4 59.02 113.36 59.02 113.36 67.97 111.45 67.97 111.45 55.01 113.94 55.01 117.47 62.88 117.51 62.88 117.51 55.01 119.47 55.01 119.47 67.97"/>
  <path class="cls-2" d="M126.81,58.43c-.29-1.13-.73-1.81-1.76-1.81-.93,0-1.47.49-1.47,1.32,0,2.69,5.33,2.4,5.33,6.65,0,2.25-1.47,3.52-3.82,3.52s-3.42-1.13-3.82-3.47l2.01-.34c.24,1.32.73,2.01,1.91,2.01.98,0,1.66-.49,1.66-1.52,0-2.84-5.23-2.54-5.23-6.65,0-2.01,1.32-3.28,3.47-3.28s3.28,1.27,3.62,3.23"/>
  <polyline class="cls-2" points="132.83 67.97 132.83 56.91 130.14 56.91 130.14 55.01 137.62 55.01 137.62 56.91 134.93 56.91 134.93 67.97"/>
  <rect class="cls-2" x="139.38" y="55.01" width="2.15" height="13.01"/>
  <polyline class="cls-2" points="145.94 67.97 145.94 56.91 143.3 56.91 143.3 55.01 150.78 55.01 150.78 56.91 148.09 56.91 148.09 67.97"/>
  <path class="cls-2" d="M158.31,55.01h2.1v8.85c0,2.79-1.22,4.31-4.01,4.31s-3.91-1.52-3.91-4.31v-8.85h2.15v9.15c0,1.52.54,2.15,1.81,2.15s1.86-.64,1.86-2.15"/>
  <polyline class="cls-2" points="164.82 67.97 164.82 56.91 162.13 56.91 162.13 55.01 169.61 55.01 169.61 56.91 166.97 56.91 166.97 67.97"/>
  <polyline class="cls-2" points="171.38 67.97 171.38 55.01 178.03 55.01 178.03 56.91 173.53 56.91 173.53 60.34 176.9 60.34 176.9 62.2 173.53 62.2 173.53 66.01 178.27 66.01 178.27 67.97"/>
  <path class="cls-2" d="M182.87,61.46c0-4.31,1.27-6.65,4.31-6.65s4.31,2.35,4.31,6.65-1.32,6.65-4.31,6.65-4.31-2.4-4.31-6.65M189.28,61.46c0-3.38-.68-4.79-2.1-4.79s-2.1,1.42-2.1,4.79.78,4.84,2.1,4.84,2.1-1.32,2.1-4.84"/>
  <polyline class="cls-2" points="193.59 67.97 193.59 55.01 200.34 55.01 200.34 56.91 195.74 56.91 195.74 60.34 199.16 60.34 199.16 62.2 195.74 62.2 195.74 67.97"/>
  <polyline class="cls-2" points="207.09 67.97 207.09 56.91 204.4 56.91 204.4 55.01 211.88 55.01 211.88 56.91 209.19 56.91 209.19 67.97"/>
  <polyline class="cls-2" points="213.64 67.97 213.64 55.01 220.25 55.01 220.25 56.91 215.8 56.91 215.8 60.34 219.12 60.34 219.12 62.2 215.8 62.2 215.8 66.01 220.49 66.01 220.49 67.97"/>
  <path class="cls-2" d="M229.88,63.71c-.39,2.89-1.61,4.4-3.96,4.4-3.08,0-4.11-2.54-4.11-6.7,0-3.77,1.08-6.6,4.16-6.6,2.49,0,3.47,1.57,3.82,4.21l-2.01.2c-.29-1.66-.83-2.45-1.81-2.45-1.32,0-2.01,1.42-2.01,4.7,0,3.62.59,4.84,2.01,4.84,1.03,0,1.66-.93,1.91-2.69"/>
  <polyline class="cls-2" points="237.61 67.97 237.61 62.2 233.94 62.2 233.94 67.97 231.79 67.97 231.79 55.01 233.94 55.01 233.94 60.29 237.61 60.29 237.61 55.01 239.77 55.01 239.77 67.97"/>
  <polyline class="cls-2" points="248.43 67.97 244.27 59.02 244.22 59.02 244.22 67.97 242.31 67.97 242.31 55.01 244.81 55.01 248.38 62.88 248.38 62.88 248.38 55.01 250.33 55.01 250.33 67.97"/>
  <path class="cls-2" d="M252.49,61.46c0-4.31,1.22-6.65,4.31-6.65s4.31,2.35,4.31,6.65-1.32,6.65-4.31,6.65-4.31-2.4-4.31-6.65M258.85,61.46c0-3.38-.68-4.79-2.1-4.79s-2.1,1.42-2.1,4.79.78,4.84,2.1,4.84,2.1-1.32,2.1-4.84"/>
  <polyline class="cls-2" points="263.15 67.97 263.15 55.01 265.3 55.01 265.3 66.01 269.66 66.01 269.66 67.97"/>
  <path class="cls-2" d="M270.73,61.46c0-4.31,1.27-6.65,4.31-6.65s4.31,2.35,4.31,6.65-1.32,6.65-4.31,6.65-4.31-2.4-4.31-6.65M277.14,61.46c0-3.38-.68-4.79-2.1-4.79s-2.1,1.42-2.1,4.79.78,4.84,2.1,4.84,2.1-1.32,2.1-4.84"/>
  <path class="cls-2" d="M287.41,67.97v-1.08h0c-.68.93-1.52,1.22-2.59,1.22-2.49,0-3.82-1.91-3.82-6.7,0-3.82,1.17-6.65,4.26-6.65,2.54,0,3.52,1.66,3.86,4.16l-2.01.2c-.29-1.57-.83-2.4-1.86-2.4-1.37,0-2.1,1.32-2.1,4.7s.54,4.79,2.1,4.79c1.22,0,1.91-.98,1.91-2.35v-.64h-1.91v-1.76h3.86v6.46"/>
  <polyline class="cls-2" points="296.42 55.01 294.36 60.24 294.31 60.24 292.36 55.01 290.06 55.01 293.29 62.74 293.29 67.97 295.44 67.97 295.44 62.74 298.67 55.01 298.67 55.01"/>
  <rect class="cls-1" x="1" y="5.34" width="94.97" height="94.97"/>
  <path class="cls-3" d="M10.64,68.57v-32.73h8.08c7.45,0,10.89,2.45,10.89,8.5,0,3.44-1.51,5.68-4.22,6.93v.1c3.7,1.3,5,4.12,5,7.82,0,7.56-4.9,9.38-11.26,9.38M18.93,49.44c2.76,0,5.26-.99,5.26-4.59s-2.61-4.12-5.26-4.12h-3.02v8.76h3.02v-.05ZM19.45,63.77c3.81,0,5.42-1.3,5.42-4.9s-1.82-5-5.37-5h-3.6v9.9h3.54Z"/>
  <path class="cls-3" d="M54.11,57.93c-.99,7.3-4.07,11.05-10.01,11.05-7.82,0-10.37-6.36-10.37-16.89,0-9.43,2.71-16.63,10.48-16.63,6.31,0,8.81,3.91,9.59,10.58l-5,.47c-.68-4.12-2.08-6.2-4.48-6.2-3.34,0-5.06,3.49-5.06,11.78,0,9.07,1.51,12.09,5,12.09,2.61,0,4.17-2.29,4.85-6.78"/>
  <rect class="cls-3" x="58.7" y="35.89" width="5.42" height="32.73"/>
  <polyline class="cls-3" points="75.33 68.57 75.33 40.79 68.55 40.79 68.55 35.89 87.42 35.89 87.42 40.79 80.7 40.79 80.7 68.57"/>
  <path class="cls-1" d="M98.26,13.32v-5.73h-1.41v-1.2h4.07v1.2h-1.41v5.73M106.13,13.32v-4.8h-.05l-1.09,4.8h-.99l-1.09-4.8h-.05v4.8h-1.2v-6.93h1.82l.99,4.33h.05l1.04-4.33h1.77v6.93h-1.2Z"/>
</svg>