<svg width="48" height="49" viewBox="0 0 48 49" fill="none" xmlns="http://www.w3.org/2000/svg">
<g clip-path="url(#clip0_9_9429)">
<path d="M2 2.10304H46.0001V45.7948H2V2.10304Z" fill="#250D00"/>
<path d="M1.99998 2.10304H46.0001V45.7948H1.99998V2.10304ZM0 47.8366H48.0001V0.0614014H0V47.8366ZM30.3601 19.9064C30.06 19.7635 29.66 19.7023 29.18 19.7023C26.6 19.7023 24.8 21.7236 24.8 25.0923C24.8 28.9306 26.64 30.4822 28.9401 30.4822C29.44 30.4822 29.9601 30.421 30.3601 30.2373V19.9064ZM29.3 16.5785C29.72 16.5785 29.9601 16.5785 30.36 16.6193V11.1885C30.36 11.0456 30.46 10.9844 30.5599 10.9844H33.7999C33.9599 10.9844 33.9999 11.0456 33.9999 11.1477V30.2373C33.9999 30.8089 33.9999 31.5236 34.0999 32.2994C34.0999 32.4423 34.0599 32.4627 33.9199 32.5445C32.1999 33.3815 30.38 33.749 28.68 33.749C24.26 33.749 21.0999 30.952 21.0999 25.2557C21.08 20.376 24.24 16.5785 29.3 16.5785ZM17.5601 33.1774C17.5601 33.3814 17.5201 33.4427 17.3 33.4427H14.22C14.0201 33.4427 13.96 33.3407 13.96 33.1774V11.2497C13.96 11.0456 14.06 10.9843 14.22 10.9843H17.32C17.48 10.9843 17.5601 11.0455 17.5601 11.2293V33.1774Z" fill="#FF408C"/>
</g>
<defs>
<clipPath id="clip0_9_9429">
<rect width="48" height="49" fill="white"/>
</clipPath>
</defs>
</svg>
