<svg width="56" height="57" viewBox="0 0 56 57" fill="none" xmlns="http://www.w3.org/2000/svg">
<g clip-path="url(#clip0_9_9463)" filter="url(#filter0_d_9_9463)">
<path d="M52 0H4V49H52V0Z" fill="#F7DF1E"/>
<path d="M16.6244 40.9456L20.2938 38.6765C21.0035 39.9656 21.6485 41.0394 23.1869 41.0394C24.6728 41.0394 25.6066 40.4489 25.6066 38.1396V22.4998H30.1169V38.22C30.1169 42.986 27.3813 45.1604 23.3838 45.1604C19.781 45.1604 17.6903 43.254 16.6244 40.9456Z" fill="#250D00"/>
<path d="M32.5769 40.4489L36.2463 38.2745C37.2194 39.8852 38.4691 41.0672 40.691 41.0672C42.5585 41.0672 43.7547 40.114 43.7547 38.798C43.7547 37.2142 42.5313 36.6639 40.4669 35.7375L39.3363 35.2408C36.0878 33.8311 33.9185 32.0452 33.9185 28.3004C33.9185 24.8503 36.4957 22.2194 40.5203 22.2194C43.3872 22.2194 45.4516 23.2396 46.9375 25.8982L43.4266 28.1941C42.6503 26.7844 41.8225 26.2207 40.5335 26.2207C39.2182 26.2207 38.3772 27.0802 38.3772 28.1941C38.3772 29.577 39.2191 30.1407 41.1522 30.9868L42.2828 31.4835C46.1228 33.1611 48.2791 34.8666 48.2791 38.7196C48.2791 42.8673 45.0832 45.1365 40.8091 45.1365C36.6007 45.1604 33.8913 43.12 32.5769 40.4489Z" fill="#250D00"/>
</g>
<defs>
<filter id="filter0_d_9_9463" x="0" y="0" width="56" height="57" filterUnits="userSpaceOnUse" color-interpolation-filters="sRGB">
<feFlood flood-opacity="0" result="BackgroundImageFix"/>
<feColorMatrix in="SourceAlpha" type="matrix" values="0 0 0 0 0 0 0 0 0 0 0 0 0 0 0 0 0 0 127 0" result="hardAlpha"/>
<feOffset dy="4"/>
<feGaussianBlur stdDeviation="2"/>
<feComposite in2="hardAlpha" operator="out"/>
<feColorMatrix type="matrix" values="0 0 0 0 0 0 0 0 0 0 0 0 0 0 0 0 0 0 0.25 0"/>
<feBlend mode="normal" in2="BackgroundImageFix" result="effect1_dropShadow_9_9463"/>
<feBlend mode="normal" in="SourceGraphic" in2="effect1_dropShadow_9_9463" result="shape"/>
</filter>
<clipPath id="clip0_9_9463">
<rect width="48" height="49" fill="white" transform="translate(4)"/>
</clipPath>
</defs>
</svg>
