<svg width="50" height="50" viewBox="0 0 50 50" fill="none" xmlns="http://www.w3.org/2000/svg">
<g clip-path="url(#clip0_304_31)">
<path d="M50 0H0V50H50V0Z" fill="#F7DF1E"/>
<path d="M13.1504 41.7812L16.9727 39.4658C17.7119 40.7812 18.3838 41.877 19.9863 41.877C21.5342 41.877 22.5068 41.2744 22.5068 38.918V22.959H27.2051V39C27.2051 43.8633 24.3555 46.082 20.1914 46.082C16.4385 46.082 14.2607 44.1367 13.1504 41.7812Z" fill="black"/>
<path d="M29.7676 41.2744L33.5898 39.0557C34.6035 40.6992 35.9053 41.9053 38.2197 41.9053C40.165 41.9053 41.4111 40.9326 41.4111 39.5898C41.4111 37.9736 40.1367 37.4121 37.9863 36.4668L36.8086 35.96C33.4248 34.5215 31.165 32.6992 31.165 28.8779C31.165 25.3574 33.8496 22.6729 38.042 22.6729C41.0283 22.6729 43.1787 23.7139 44.7266 26.4268L41.0693 28.7695C40.2607 27.3311 39.3984 26.7559 38.0557 26.7559C36.6855 26.7559 35.8096 27.6328 35.8096 28.7695C35.8096 30.1807 36.6865 30.7559 38.7002 31.6191L39.8779 32.126C43.8779 33.8379 46.124 35.5781 46.124 39.5098C46.124 43.7422 42.7949 46.0576 38.3428 46.0576C33.959 46.082 31.1367 44 29.7676 41.2744Z" fill="black"/>
</g>
<defs>
<clipPath id="clip0_304_31">
<rect width="50" height="50" fill="white"/>
</clipPath>
</defs>
</svg>
