<svg width="48" height="49" viewBox="0 0 48 49" fill="none" xmlns="http://www.w3.org/2000/svg">
<g clip-path="url(#clip0_9_9453)">
<path d="M2 2.10304H46.0001V45.7948H2V2.10304Z" fill="#250D00"/>
<path d="M1.99998 2.10304H46.0001V45.7948H1.99998V2.10304ZM0 47.8366H48.0001V0.0614014H0V47.8366ZM28.8 20.2331C28.8 19.9881 28.8 19.3961 28.7001 18.2526C28.7001 18.0893 28.7201 18.0485 28.86 17.9872C30.08 17.4768 32.9401 16.5785 36.18 16.5785C36.34 16.5785 36.42 16.6193 36.42 16.7827V19.7431C36.42 19.9064 36.36 19.9472 36.2 19.9472C34.94 19.886 33.12 20.0493 32.42 20.3555V33.2181C32.42 33.3813 32.36 33.4631 32.1799 33.4631H29.04C28.88 33.4631 28.8 33.4018 28.8 33.2181L28.8 20.2331ZM16.0001 22.091C16.46 22.1319 16.82 22.1319 17.6201 22.1319C19.9601 22.1319 22.1601 21.2948 22.1601 18.0486C22.1601 15.4557 20.6001 14.1489 17.92 14.1489C17.1201 14.1489 16.3601 14.1898 16.0001 14.2102V22.091ZM12.46 11.2497C12.46 11.1068 12.5 11.0047 12.66 11.0047C13.94 10.9434 15.82 10.9026 17.8001 10.9026C23.34 10.9026 25.76 14.0059 25.76 17.9872C25.76 23.173 22.0801 25.3985 17.5601 25.3985C16.8 25.3985 16.5401 25.3577 16.0001 25.3577V33.1977C16.0001 33.361 15.9401 33.4427 15.76 33.4427H12.68C12.52 33.4427 12.44 33.3814 12.44 33.1977V11.2497H12.46Z" fill="#E579FF"/>
</g>
<defs>
<clipPath id="clip0_9_9453">
<rect width="48" height="49" fill="white"/>
</clipPath>
</defs>
</svg>
