<svg width="48" height="49" viewBox="0 0 48 49" fill="none" xmlns="http://www.w3.org/2000/svg">
<g clip-path="url(#clip0_9_9468)">
<path d="M0 0H48V49H0" fill="#05A8DA"/>
<path d="M10.2188 18.2793C8.62493 21.9336 8.48803 26.0839 9.83741 29.8407C11.1868 33.5975 13.9151 36.6618 17.4375 38.3769L10.2188 18.2793ZM31.5 33.7832C33.375 28.2962 34.2812 24.819 34.2188 23.3516C34.1562 21.8841 33.4688 20.1615 32.1562 18.1836C30.375 15.0254 32.5312 13.0156 34.125 13.1113C32.508 11.6226 30.5919 10.5076 28.5089 9.84311C26.4258 9.17865 24.2255 8.98062 22.0597 9.26267C19.8939 9.54472 17.8142 10.3001 15.9641 11.4768C14.114 12.6535 12.5377 14.2234 11.3438 16.0781C13.0938 16.0781 14.75 16.0143 16.3125 15.8867C16.4741 15.8486 16.6439 15.8777 16.7846 15.9674C16.9252 16.0571 17.0252 16.2002 17.0625 16.3652C17.0998 16.5302 17.0714 16.7036 16.9835 16.8471C16.8955 16.9907 16.7554 17.0928 16.5938 17.1309L14.8125 17.3223L20.25 33.9746L23.5312 23.8301L21.1875 17.2266L19.6875 17.1309C19.5259 17.1309 19.3709 17.0653 19.2566 16.9487C19.1423 16.832 19.0781 16.6738 19.0781 16.5088C19.0781 16.3438 19.1423 16.1856 19.2566 16.0689C19.3709 15.9523 19.5259 15.8867 19.6875 15.8867C22.3125 16.1419 24.9375 16.1419 27.5625 15.8867C27.7241 15.8486 27.8939 15.8777 28.0346 15.9674C28.1752 16.0571 28.2752 16.2002 28.3125 16.3652C28.3498 16.5302 28.3214 16.7036 28.2335 16.8471C28.1455 16.9907 28.0054 17.0928 27.8438 17.1309L26.0625 17.2266L31.5 33.7832ZM24.2812 25.8398L19.6875 39.2383C22.7263 40.1701 25.9679 40.1032 28.9688 39.0469L24.2812 25.8398ZM36.2812 24.0215C37.2188 21.4694 37.5312 19.1725 37.2188 17.1309C39.0778 20.6489 39.5308 24.7512 38.4848 28.5955C37.4387 32.4397 34.9729 35.7343 31.5938 37.8027L36.2812 24.0215ZM24.0938 42.9707C28.8843 42.9454 33.4695 40.9816 36.8438 37.5102C40.2181 34.0387 42.1061 29.3428 42.0937 24.4524C42.0813 19.562 40.1695 14.8762 36.7776 11.4226C33.3857 7.96899 28.7906 6.02954 24 6.02954C19.2094 6.02954 14.6142 7.96899 11.2224 11.4226C7.83049 14.8762 5.91872 19.562 5.90631 24.4524C5.8939 29.3428 7.78186 34.0387 11.1562 37.5102C14.5305 40.9816 19.1157 42.9454 23.9062 42.9707H24.0938ZM23.9062 41.918C19.3892 41.8926 15.0663 40.0398 11.8854 36.7658C8.70447 33.4917 6.92515 29.0636 6.93756 24.4524C6.94997 19.8412 8.75309 15.4231 11.9516 12.167C15.1501 8.91083 19.4829 7.08229 24 7.08229C28.5171 7.08229 32.8499 8.91083 36.0484 12.167C39.2469 15.4231 41.05 19.8412 41.0624 24.4524C41.0748 29.0636 39.2955 33.4917 36.1146 36.7658C32.9337 40.0398 28.6108 41.8926 24.0938 41.918H23.9062Z" fill="white"/>
</g>
<defs>
<clipPath id="clip0_9_9468">
<rect width="48" height="49" fill="white"/>
</clipPath>
</defs>
</svg>
