<svg width="51" height="49" viewBox="0 0 51 49" fill="none" xmlns="http://www.w3.org/2000/svg">
<g clip-path="url(#clip0_9_9438)">
<path fill-rule="evenodd" clip-rule="evenodd" d="M2.12964 2.09402H48.87V46.906H2.12964V2.09402Z" fill="#250D00"/>
<path fill-rule="evenodd" clip-rule="evenodd" d="M0.00500488 0V49H50.9948V0H0.00500488ZM2.12957 2.09402H48.8702V46.906H2.12957V2.09402Z" fill="#D291FF"/>
<path fill-rule="evenodd" clip-rule="evenodd" d="M14.4172 27.7457L12.7346 33.9995C12.6993 34.1721 12.6292 34.2372 12.4189 34.2372H9.29916C9.08883 34.2372 9.05356 34.1681 9.08883 33.9264L15.1181 13.1266C15.2235 12.7467 15.2936 12.4468 15.3285 11.4105C15.3285 11.2723 15.3986 11.2032 15.504 11.2032H19.956C20.0958 11.2032 20.1659 11.238 20.2012 11.4105L26.967 33.9608C27.0019 34.1337 26.967 34.2372 26.7915 34.2372H23.286C23.111 34.2372 23.0056 34.1721 22.9707 34.0343L21.218 27.7457H14.4172ZM20.3796 24.3463C19.7837 22.0314 18.343 16.9542 17.8172 14.5011H17.7823C17.3266 16.9542 16.176 21.0964 15.2996 24.3442L20.3796 24.3463ZM31.7683 26.4893C31.8036 29.3227 33.171 31.2228 36.3959 31.2228C37.6576 31.2228 38.739 31.0585 39.8608 30.5745C40.001 30.5054 40.1064 30.5402 40.1064 30.7127V33.3388C40.1064 33.5462 40.0363 33.6496 39.8961 33.7533C38.7745 34.3063 37.3774 34.5479 35.6246 34.5479C30.016 34.5479 27.9125 30.4711 27.9125 25.9101C27.9125 20.9695 30.5063 16.9272 35.064 16.9272C39.6911 16.9272 41.3036 20.7622 41.3036 23.8718C41.3036 24.8738 41.2335 25.7032 41.1285 26.0831C41.0933 26.2556 41.0232 26.3166 40.8481 26.3509C40.4274 26.42 39.1654 26.4891 37.3073 26.4891L31.7683 26.4893ZM36.0801 23.61C37.1669 23.61 37.5529 23.61 37.6578 23.5757C37.6578 23.4375 37.6931 23.3188 37.6931 23.2153C37.6931 22.0751 37.132 19.9824 34.9237 19.9824C32.8905 19.9824 32.0142 21.7443 31.8036 23.61H36.0801Z" fill="#D291FF"/>
</g>
<defs>
<clipPath id="clip0_9_9438">
<rect width="51" height="49" fill="white"/>
</clipPath>
</defs>
</svg>
