<svg width="50" height="49" viewBox="0 0 50 49" fill="none" xmlns="http://www.w3.org/2000/svg">
<g clip-path="url(#clip0_304_30)">
<path d="M2.08325 2.08739H47.9166V46.652H2.08325V2.08739Z" fill="url(#paint0_radial_304_30)"/>
<path d="M2.08331 2.08739H47.9167V46.652H2.08331V2.08739ZM0 48.7345H50V0.00495911H0V48.7345ZM32.75 17.3727C32.75 17.2061 32.8125 17.1227 33 17.1227H36.2708C36.4374 17.1227 36.5208 17.1852 36.5208 17.3727V33.8033C36.5208 33.9698 36.4791 34.0532 36.2708 34.0532H33.0417C32.8334 34.0532 32.7708 33.9491 32.7708 33.7825V17.3727H32.75ZM32.5208 12.6455C32.5208 11.3127 33.4583 10.5214 34.6459 10.5214C35.9167 10.5214 36.7708 11.3752 36.7708 12.6455C36.7708 14.0199 35.875 14.7695 34.6042 14.7695C33.3958 14.7696 32.5208 14.0199 32.5208 12.6455ZM23.1458 24.224C22.5626 21.9124 21.1876 16.8729 20.6667 14.4364H20.625C20.1875 16.8729 19.0834 20.9961 18.2084 24.224H23.1458ZM17.3542 27.5976L15.7083 33.845C15.6667 34.0115 15.6042 34.0531 15.3959 34.0531H12.3334C12.125 34.0531 12.0833 33.9906 12.1251 33.7408L18.0417 13.0411C18.1458 12.6663 18.2083 12.333 18.25 11.3127C18.25 11.1669 18.3125 11.1045 18.4166 11.1045H22.7916C22.9374 11.1045 22.9999 11.1461 23.0417 11.3127L29.6666 33.7824C29.7083 33.9489 29.6666 34.0531 29.5 34.0531H26.0416C25.875 34.0531 25.7707 34.0115 25.7292 33.8658L24.0208 27.5976H17.3542Z" fill="#FF7F18"/>
</g>
<defs>
<radialGradient id="paint0_radial_304_30" cx="0" cy="0" r="1" gradientUnits="userSpaceOnUse" gradientTransform="translate(17.1785 12.0744) scale(34.8334 33.7108)">
<stop stop-color="#423325" stop-opacity="0.98"/>
<stop offset="1" stop-color="#1C0A00"/>
</radialGradient>
<clipPath id="clip0_304_30">
<rect width="50" height="48.7395" fill="white"/>
</clipPath>
</defs>
</svg>
