<svg width="51" height="49" viewBox="0 0 51 49" fill="none" xmlns="http://www.w3.org/2000/svg">
<path d="M9.51447 4.53718e-06H41.634C46.4926 -0.00490331 50.4363 3.97242 50.4402 8.88322V8.8999V40.1011C50.445 45.0109 46.5091 48.9961 41.6505 49H41.634H9.51447C4.6558 49.0049 0.713112 45.0276 0.708255 40.1178V40.1011V8.89892C0.704369 3.98911 4.63929 0.00491239 9.49796 4.53718e-06H9.51447Z" fill="#250D00"/>
<path d="M23.0879 29.3166H15.3793L13.8048 34.2588C13.7678 34.4443 13.5979 34.5709 13.4104 34.5523H9.51433C9.28703 34.5523 9.22389 34.4266 9.28703 34.1753L15.9592 14.8266C16.0204 14.6176 16.0835 14.4281 16.1661 14.1768C16.2496 13.7283 16.2914 13.2718 16.2904 12.8164C16.2778 12.7074 16.3497 12.6073 16.4565 12.5867H21.8242C21.9903 12.5867 22.0729 12.6505 22.0942 12.7545L29.6562 34.2175C29.7173 34.4472 29.6562 34.5523 29.4493 34.5523H25.119C24.9675 34.567 24.8276 34.4698 24.7878 34.3226L23.0879 29.3166ZM16.5809 25.1488H21.8446C21.7203 24.7081 21.5542 24.1859 21.3686 23.6411C21.1812 23.0964 20.9956 22.4682 20.8082 21.8399C20.6226 21.2117 20.4138 20.5619 20.2079 19.9131C20.001 19.2633 19.8135 18.6567 19.6474 18.0501C19.4813 17.4435 19.3375 16.9193 19.1918 16.4168H19.1501C18.9646 17.3296 18.7285 18.2307 18.4459 19.1171C18.136 20.1222 17.8242 21.1695 17.493 22.2159C17.2025 23.2858 16.8927 24.2693 16.5809 25.1488Z" fill="#33FF66"/>
<path d="M31.8739 17.7988H35.5009C35.7019 17.8037 35.8777 17.9382 35.9351 18.1335C36.0118 18.3073 36.0672 18.4908 36.1012 18.6783C36.1429 18.8874 36.1837 19.119 36.2041 19.3281C36.2255 19.5372 36.2459 19.8091 36.2459 20.082C36.8685 19.3477 37.6194 18.7372 38.4625 18.2808C39.3649 17.7635 40.3887 17.5024 41.4251 17.5269C41.565 17.5083 41.6961 17.6074 41.7146 17.7488L41.7155 17.7566V21.9244C41.7155 22.0922 41.6126 22.154 41.3843 22.154C40.6898 22.1089 39.9924 22.158 39.3124 22.3013C38.7141 22.4259 38.1303 22.6164 37.5718 22.8677C37.0958 23.0973 36.5771 23.3486 36.3285 23.6431V34.2607C36.3285 34.4698 36.2459 34.5542 36.0584 34.5542H32.1624C32.0069 34.5807 31.8593 34.4747 31.8331 34.3167L31.8311 34.3029V22.7008C31.8311 22.1982 31.8311 21.6741 31.8098 21.1313C31.7884 20.5865 31.7884 20.0427 31.768 19.4979C31.7466 19.0169 31.7068 18.5144 31.6437 18.0324C31.6203 17.9294 31.6854 17.8253 31.7874 17.8027H31.7913H31.8739V17.7988Z" fill="#33FF66"/>
</svg>
