<svg width="48" height="49" viewBox="0 0 48 49" fill="none" xmlns="http://www.w3.org/2000/svg">
<g clip-path="url(#clip0_9_9456)">
<path d="M19.9509 22.138C19.7887 28.315 17.2717 31.9663 11.0232 31.2963V13.6928C17.3368 12.9832 19.983 16.3472 19.9509 22.138ZM48 0V49H0V0H48ZM24.0109 22.0489C24.0109 14.9407 20.3438 10.083 12.9877 10.083H7.02865V34.9284H12.7694C17.6589 34.9284 24.0109 31.9425 24.0109 22.0489ZM40.9932 22.9402C40.9932 17.5255 37.5443 16.2999 34.4666 16.2999C31.9563 16.2999 29.4679 17.0575 27.6126 17.7706C27.2141 17.9573 27.5481 17.8583 27.5471 20.3331L27.5471 34.8615H31.5416V20.2885C35.0151 19.2799 37.0436 20.1094 36.9986 23.2299L36.9986 34.8615H40.9932V22.9402Z" fill="#250D00"/>
</g>
<defs>
<clipPath id="clip0_9_9456">
<rect width="48" height="49" fill="white"/>
</clipPath>
</defs>
</svg>
