<svg width="32" height="49" viewBox="0 0 32 49" fill="none" xmlns="http://www.w3.org/2000/svg">
<g clip-path="url(#clip0_9_9423)">
<path d="M8.0017 49C12.4168 49 16.0001 45.3413 16.0001 40.8333V32.6667H8.0017C3.58658 32.6667 0.0032959 36.3253 0.0032959 40.8333C0.0032959 45.3413 3.58658 49 8.0017 49Z" fill="#0ACF83"/>
<path d="M0.0032959 24.5C0.0032959 19.992 3.58658 16.3333 8.0017 16.3333H16.0001V32.6667H8.0017C3.58658 32.6667 0.0032959 29.008 0.0032959 24.5Z" fill="#A259FF"/>
<path d="M0.00341797 8.16667C0.00341797 3.65867 3.5867 0 8.00182 0H16.0002V16.3333H8.00182C3.5867 16.3333 0.00341797 12.6747 0.00341797 8.16667Z" fill="#F24E1E"/>
<path d="M16 0H23.9984C28.4135 0 31.9968 3.65867 31.9968 8.16667C31.9968 12.6747 28.4135 16.3333 23.9984 16.3333H16V0Z" fill="#FF7262"/>
<path d="M31.9968 24.5C31.9968 29.008 28.4135 32.6667 23.9984 32.6667C19.5833 32.6667 16 29.008 16 24.5C16 19.992 19.5833 16.3333 23.9984 16.3333C28.4135 16.3333 31.9968 19.992 31.9968 24.5Z" fill="#1ABCFE"/>
</g>
<defs>
<clipPath id="clip0_9_9423">
<rect width="32" height="49" fill="white"/>
</clipPath>
</defs>
</svg>
