<svg width="50" height="49" viewBox="0 0 50 49" fill="none" xmlns="http://www.w3.org/2000/svg">
<g clip-path="url(#clip0_9_9448)">
<path d="M6.9688 44.1031L2.9563 0.00152588H47.0438L43.0282 44.0969L24.9719 49L6.9688 44.1031Z" fill="#E44D26"/>
<path d="M39.5891 41.2886L43.0219 3.60762H25V45.253L39.5891 41.2886Z" fill="#F16529"/>
<path d="M24.9813 9.01601H11.1594L12.6485 25.3728H25V19.9644H17.6969L17.1922 14.4259H25V9.01601H24.9813ZM25 33.9938L24.9766 33.9999L18.8297 32.3737L18.4391 28.0602H12.8954L13.6688 36.5525L24.975 39.615L25 39.6073V33.9938Z" fill="#EBEBEB"/>
<path d="M24.9813 25.3728H31.7781L31.1531 32.3859L24.9969 34.0137V39.641L36.3125 36.5678L37.8281 19.9614H25L24.9813 25.3728ZM38.675 10.4676L38.8063 9.01601H24.9781V14.4244H38.3094L38.4188 13.2086L38.675 10.4676Z" fill="white"/>
</g>
<defs>
<clipPath id="clip0_9_9448">
<rect width="50" height="49" fill="white"/>
</clipPath>
</defs>
</svg>
