<svg width="48" height="49" viewBox="0 0 48 49" fill="none" xmlns="http://www.w3.org/2000/svg">
<g clip-path="url(#clip0_9_9435)">
<path d="M2 2.10304H46.0001V45.7948H2V2.10304Z" fill="#250D00"/>
<path d="M1.99998 2.10304H46.0001V45.7948H1.99998V2.10304ZM0 47.8366H48.0001V0.0614014H0V47.8366ZM32.3601 19.6614C30.78 19.6614 30.2401 20.4781 30.2401 21.1518C30.2401 21.8868 30.6 22.3972 32.7201 23.5202C35.8601 25.0719 36.8401 26.5623 36.8401 28.7469C36.8401 32.0135 34.4001 33.7694 31.1001 33.7694C29.3601 33.7694 27.86 33.4018 27 32.8915C26.8601 32.8302 26.8401 32.7282 26.8401 32.5648V29.5635C26.8401 29.3594 26.9401 29.2981 27.0801 29.4002C28.3401 30.2373 29.7801 30.6048 31.1001 30.6048C32.6801 30.6048 33.3401 29.9311 33.3401 29.0123C33.3401 28.2773 32.8801 27.6239 30.86 26.5623C28.02 25.1739 26.8401 23.7652 26.8401 21.4173C26.8401 18.7835 28.8601 16.5989 32.3601 16.5989C34.0801 16.5989 35.2801 16.8644 35.9401 17.1706C36.1 17.2727 36.14 17.436 36.14 17.5789V20.3759C36.14 20.5392 36.0401 20.6414 35.84 20.5801C34.96 20.0086 33.66 19.6614 32.3601 19.6614ZM15.16 22.091C15.62 22.1319 15.9801 22.1319 16.78 22.1319C19.1201 22.1319 21.3201 21.2948 21.3201 18.0486C21.3201 15.4557 19.74 14.1489 17.0801 14.1489C16.2801 14.1489 15.52 14.1898 15.16 14.2102V22.091ZM11.6001 11.2497C11.6001 11.1068 11.8801 11.0047 12.04 11.0047C13.3201 10.9434 15.2201 10.9026 17.2001 10.9026C22.74 10.9026 24.9 14.0059 24.9 17.9668C24.9 23.1526 21.22 25.3781 16.7 25.3781C15.9401 25.3781 15.6801 25.3373 15.14 25.3373V33.1773C15.14 33.3406 15.08 33.4223 14.9 33.4223H11.84C11.6801 33.4223 11.6 33.361 11.6 33.1773L11.6001 11.2497Z" fill="#31C5F0"/>
</g>
<defs>
<clipPath id="clip0_9_9435">
<rect width="48" height="49" fill="white"/>
</clipPath>
</defs>
</svg>
